<svg width="1104" height="841" viewBox="0 0 1104 841" fill="none" xmlns="http://www.w3.org/2000/svg">
<path d="M491.986 310.75C551.717 310.75 600.138 262.743 600.138 203.522C600.138 144.302 551.717 96.2949 491.986 96.2949C432.255 96.2949 383.834 144.302 383.834 203.522C383.834 262.743 432.255 310.75 491.986 310.75Z" fill="#010202"/>
<path d="M1039.96 455.403C1039.53 459.187 1039.11 462.972 1038.26 466.756C1036.56 473.484 1034.87 479.792 1032.75 486.099C1031.9 488.201 1030.2 489.042 1028.08 488.622C1026.38 487.781 1025.54 486.099 1026.38 483.997C1028.93 476.848 1031.05 469.7 1031.9 462.551C1034.87 443.208 1031.9 424.285 1023.84 406.204C1020.45 399.055 1016.63 392.328 1011.96 386.441C1010.69 385.179 1010.27 383.497 1011.54 381.815C1012.81 379.713 1015.78 379.713 1017.48 382.236C1022.99 389.384 1028.08 397.374 1031.47 405.784C1035.72 416.296 1038.68 426.808 1039.53 438.162C1039.53 438.582 1039.96 439.003 1039.96 439.424C1039.96 444.89 1039.96 450.357 1039.96 455.403Z" fill="white"/>
<path d="M926.715 555.061C924.171 552.117 924.171 550.435 926.715 548.753C943.68 535.718 953.859 518.477 960.221 498.714C963.19 488.622 965.311 478.109 966.159 467.597C966.159 466.756 966.159 466.335 966.583 465.494C967.007 463.392 968.28 462.551 970.4 462.551C972.097 462.551 973.369 464.233 973.369 466.335C973.369 469.279 972.945 472.222 972.521 474.745C970.4 489.463 967.007 503.76 960.646 517.216C953.435 531.933 943.681 544.969 930.108 554.64V555.061C928.836 555.061 927.564 555.061 926.715 555.061Z" fill="white"/>
<path d="M995.848 453.3C995.424 468.859 993.727 484.417 989.486 499.555C984.821 516.375 977.61 531.934 966.159 545.39C965.311 546.651 964.038 547.913 962.766 548.754C961.07 550.436 958.949 550.436 957.677 549.174C956.404 547.913 956.404 545.81 957.677 544.128C961.494 539.082 965.735 534.457 969.128 528.99C977.61 515.955 982.276 501.237 985.245 485.679C987.789 472.223 989.062 458.767 988.638 444.89C988.214 423.024 972.945 402.42 952.587 394.851C936.046 388.543 919.505 389.805 903.813 398.215C901.268 399.476 899.571 399.476 898.723 397.794C897.451 396.112 897.875 394.01 900.42 392.748C907.206 388.964 913.992 386.441 921.626 385.179C940.287 382.236 957.252 386.861 971.673 398.215C986.093 409.568 994.151 424.706 995.424 442.788C995.848 446.152 995.848 449.936 995.848 453.3Z" fill="white"/>
<path d="M930.957 405.783C949.194 406.624 961.918 414.193 969.552 429.331C970.4 430.593 970.4 432.275 969.128 433.536C968.28 434.377 966.583 434.798 965.735 434.798C964.463 434.377 963.614 433.116 963.19 432.275C959.373 424.706 953.011 419.239 945.377 415.875C924.595 407.045 899.995 420.501 897.027 442.787C896.178 447.833 896.602 453.3 896.178 458.766C895.33 473.904 892.785 488.622 886.423 502.498C883.03 510.067 878.365 516.795 870.731 521.421C867.338 523.523 863.521 524.785 859.703 526.046C857.159 526.887 855.038 525.626 854.614 523.523C854.19 521.421 855.462 520.159 858.007 519.318C867.762 517.216 874.124 510.488 878.365 502.078C883.455 492.827 885.999 482.735 887.272 472.643C888.544 463.392 888.968 454.141 889.392 445.31C890.665 427.649 902.964 412.511 919.929 408.306C924.171 406.624 927.988 406.624 930.957 405.783Z" fill="white"/>
<path d="M935.198 365.835C935.198 367.937 933.926 369.199 931.381 369.199C924.171 369.199 916.961 370.04 910.175 372.142C882.182 380.973 863.521 399.054 855.038 427.228C852.493 435.638 852.069 444.468 852.069 453.719C852.069 462.55 850.797 470.96 846.132 478.529C844.435 481.893 841.89 484.416 838.497 486.518C836.801 487.78 835.104 487.359 833.832 485.677C832.559 483.995 832.984 482.313 834.256 481.052C841.042 476.426 843.163 469.278 844.011 461.709C844.859 454.981 844.859 447.832 845.283 441.104C846.556 425.966 851.221 412.09 860.128 399.895C874.124 379.711 893.634 367.937 917.809 363.732C922.05 362.891 926.291 362.891 930.957 362.891C933.926 362.05 935.198 363.732 935.198 365.835Z" fill="white"/>
<path d="M932.653 340.605C953.011 340.605 972.945 346.492 990.758 357.846C991.183 358.266 991.607 358.266 992.031 358.687C993.303 359.948 993.727 361.63 992.879 363.312C992.031 364.994 990.334 365.415 988.638 364.574C986.517 363.312 984.821 362.051 982.7 361.21C965.311 351.118 946.649 346.913 926.291 347.754C908.478 348.595 891.937 354.061 877.093 363.312C876.668 363.733 876.244 363.733 875.82 364.153C874.124 364.994 872.003 364.994 871.155 363.312C869.882 361.63 870.307 359.528 872.427 358.687C877.941 355.323 883.879 351.959 889.816 349.436C902.964 343.128 916.96 340.605 932.653 340.605Z" fill="white"/>
<path d="M1011.54 450.776C1010.69 417.557 996.272 392.327 965.735 376.768C963.19 375.507 962.342 373.825 963.19 372.143C964.039 370.04 966.159 369.62 968.704 370.881C995 383.917 1011.12 404.942 1016.63 433.956C1018.33 442.787 1017.9 452.038 1017.48 460.868C1017.48 463.391 1015.78 464.653 1014.09 464.653C1011.96 464.653 1010.69 462.971 1010.69 460.448C1010.69 457.504 1010.69 454.14 1010.69 451.197C1011.12 450.776 1011.12 450.776 1011.54 450.776Z" fill="white"/>
<path d="M951.739 449.095C950.89 468.438 947.073 485.679 939.863 502.078C939.015 504.181 936.894 505.022 935.198 504.181C933.501 503.34 932.653 501.237 933.501 499.135C938.167 488.202 941.56 476.848 943.256 465.074C944.104 459.187 944.529 453.3 944.529 447.413C944.529 440.685 938.591 434.798 931.805 434.798C924.595 434.798 918.657 440.265 918.233 446.993C918.233 448.675 917.809 450.357 916.112 450.777C915.264 451.198 913.567 451.198 912.719 450.357C911.871 449.516 911.447 448.254 911.447 446.993C911.447 437.321 919.081 428.911 928.412 428.07C939.015 426.809 948.346 433.116 950.466 443.208C951.739 445.311 951.739 447.834 951.739 449.095Z" fill="white"/>
<path d="M823.653 444.469C824.925 415.875 835.528 391.486 855.886 371.302C857.583 369.62 859.703 369.199 861.4 370.881C863.096 372.563 862.672 374.666 860.976 376.348C846.556 390.224 837.225 407.044 832.983 426.808C831.711 433.536 831.287 440.264 830.439 446.992C830.015 449.515 829.166 451.197 827.046 451.197C824.925 451.197 823.653 449.935 823.653 446.992C823.653 446.151 823.653 445.31 823.653 444.469Z" fill="white"/>
<path d="M874.548 537.82C872.003 537.82 870.731 536.979 870.307 534.876C870.307 532.774 871.579 531.512 873.7 531.092C882.606 530.251 889.392 525.625 894.482 518.477C900.42 510.487 903.813 500.816 905.933 491.144C907.206 486.939 907.63 482.314 908.478 478.109C908.902 476.427 909.326 474.745 911.023 474.324C913.568 473.483 915.688 475.586 915.264 478.95C914.416 483.996 913.143 489.462 911.871 494.508C909.326 504.6 905.509 514.272 899.147 523.102C893.209 530.671 885.999 536.138 876.244 537.399C875.82 537.399 875.396 537.399 875.396 537.399C875.396 537.82 874.972 537.82 874.548 537.82Z" fill="white"/>
<path d="M872.851 468.017C871.579 475.165 869.458 482.734 866.065 489.462C863.096 495.77 859.279 501.236 853.766 505.021C851.221 506.703 848.676 507.544 845.707 508.805C844.011 509.646 841.89 507.964 841.466 506.282C841.042 504.6 841.89 502.918 843.587 502.077C852.917 499.134 857.583 491.985 860.976 483.996C863.096 478.109 864.369 472.222 866.065 466.335C866.489 464.232 868.186 462.971 869.882 463.391C871.579 464.232 872.851 465.494 872.851 468.017Z" fill="white"/>
<path d="M1014.09 489.883C1013.24 492.826 1012.39 496.611 1011.54 500.816C1008.15 512.59 1003.91 523.943 995.848 534.035C995.424 534.456 995.424 534.456 995 534.876C993.727 536.558 991.607 536.979 989.91 535.717C988.214 534.456 988.214 532.353 989.486 530.671C994.151 524.784 997.969 518.056 1000.51 510.908C1003.06 503.759 1004.75 496.19 1006.88 489.042C1007.3 486.939 1009 485.678 1010.69 486.098C1012.81 485.678 1014.09 487.36 1014.09 489.883Z" fill="white"/>
<path d="M867.762 446.572C868.186 432.275 872.851 419.239 882.182 407.886C883.454 406.624 884.727 405.363 886.423 406.204C888.968 407.045 889.392 409.568 887.272 412.091C881.758 418.819 877.941 425.967 876.244 434.377C875.396 438.162 874.972 441.946 874.548 445.731C874.548 446.572 874.548 447.413 874.548 447.833C874.124 449.936 872.851 450.777 871.155 450.777C869.458 450.777 868.186 449.515 867.762 447.833C867.762 447.413 867.762 446.992 867.762 446.572Z" fill="white"/>
<path d="M931.805 519.319C931.381 520.16 931.381 520.58 930.957 521.421C924.171 534.036 913.992 543.287 900.844 548.754C898.299 550.015 896.602 549.174 895.754 547.492C894.906 545.39 895.754 543.708 898.299 542.867C910.174 537.821 919.505 529.411 925.443 518.057C926.291 516.375 927.564 515.534 929.26 515.955C930.533 516.375 931.381 517.637 932.229 518.478C931.805 518.898 931.805 518.898 931.805 519.319Z" fill="white"/>
<path d="M276.53 525.625C336.261 525.625 384.682 477.618 384.682 418.397C384.682 359.177 336.261 311.17 276.53 311.17C216.799 311.17 168.378 359.177 168.378 418.397C168.378 477.618 216.799 525.625 276.53 525.625Z" fill="#010202"/>
<path d="M491.138 525.625C550.869 525.625 599.29 477.618 599.29 418.397C599.29 359.177 550.869 311.17 491.138 311.17C431.407 311.17 382.986 359.177 382.986 418.397C382.986 477.618 431.407 525.625 491.138 525.625Z" fill="#010202"/>
<path d="M276.106 310.75C335.837 310.75 384.258 262.743 384.258 203.522C384.258 144.302 335.837 96.2949 276.106 96.2949C216.375 96.2949 167.954 144.302 167.954 203.522C167.954 262.743 216.375 310.75 276.106 310.75Z" fill="#010202"/>
<path d="M708.29 310.75C768.021 310.75 816.443 262.743 816.443 203.522C816.443 144.302 768.021 96.2949 708.29 96.2949C648.56 96.2949 600.138 144.302 600.138 203.522C600.138 262.743 648.56 310.75 708.29 310.75Z" fill="#010202"/>
<path d="M271.441 740.5C331.171 740.5 379.593 692.493 379.593 633.272C379.593 574.052 331.171 526.045 271.441 526.045C211.71 526.045 163.289 574.052 163.289 633.272C163.289 692.493 211.71 740.5 271.441 740.5Z" fill="#010202"/>
<path d="M489.017 740.5C548.748 740.5 597.17 692.493 597.17 633.272C597.17 574.052 548.748 526.045 489.017 526.045C429.287 526.045 380.865 574.052 380.865 633.272C380.865 692.493 429.287 740.5 489.017 740.5Z" fill="#010202"/>
<path d="M706.594 740.5C766.325 740.5 814.746 692.493 814.746 633.272C814.746 574.052 766.325 526.045 706.594 526.045C646.863 526.045 598.442 574.052 598.442 633.272C598.442 692.493 646.863 740.5 706.594 740.5Z" fill="#010202"/>
</svg>
